<?xml version="1.0" standalone="no"?><!DOCTYPE svg PUBLIC "-//W3C//DTD SVG 1.1//EN" "http://www.w3.org/Graphics/SVG/1.1/DTD/svg11.dtd"><svg t="1654592089620" class="icon" viewBox="0 0 1024 1024" version="1.1" xmlns="http://www.w3.org/2000/svg" p-id="8380" xmlns:xlink="http://www.w3.org/1999/xlink" width="200" height="200"><defs><style type="text/css">@font-face { font-family: feedback-iconfont; src: url("//at.alicdn.com/t/font_1031158_u69w8yhxdu.woff2?t=1630033759944") format("woff2"), url("//at.alicdn.com/t/font_1031158_u69w8yhxdu.woff?t=1630033759944") format("woff"), url("//at.alicdn.com/t/font_1031158_u69w8yhxdu.ttf?t=1630033759944") format("truetype"); }
</style></defs><path d="M512 784.1L210.3 485.2c-22.2-22-58.2-22-80.4 0l-20.1 19.9c-22.2 22-22.2 57.7 0 79.7l340.9 337.7 1 1 20.2 19.9c22.1 22 58.2 22 80.4 0l20.1-19.9 0.4-0.4 341.5-338.3c22.2-22 22.2-57.7 0-79.7l-20.1-19.9c-22.2-22-58.3-22-80.5 0L512 784.1z m0-404.7L210.3 80.5c-22.2-22-58.2-22-80.4 0l-20.1 19.9c-22.2 22-22.2 57.7 0 79.7l340.9 337.7 1 1 20.2 19.9c22.1 22 58.2 22 80.4 0l20.1-19.9 0.4-0.4 341.5-338.3c22.2-22 22.2-57.7 0-79.7l-20.1-19.9c-22.2-22-58.3-22-80.5 0L512 379.4z" fill="#ffffff" p-id="8381"></path></svg>