<?xml version="1.0" standalone="no"?><!DOCTYPE svg PUBLIC "-//W3C//DTD SVG 1.1//EN" "http://www.w3.org/Graphics/SVG/1.1/DTD/svg11.dtd"><svg t="1654593450812" class="icon" viewBox="0 0 1024 1024" version="1.1" xmlns="http://www.w3.org/2000/svg" p-id="12318" xmlns:xlink="http://www.w3.org/1999/xlink" width="200" height="200"><defs><style type="text/css">@font-face { font-family: feedback-iconfont; src: url("//at.alicdn.com/t/font_1031158_u69w8yhxdu.woff2?t=1630033759944") format("woff2"), url("//at.alicdn.com/t/font_1031158_u69w8yhxdu.woff?t=1630033759944") format("woff"), url("//at.alicdn.com/t/font_1031158_u69w8yhxdu.ttf?t=1630033759944") format("truetype"); }
</style></defs><path d="M382.6 590.2L140.1 401.5c-5.9-4.6-14.5-0.4-14.5 7.1v388.6c0 15.8 3.9 30.7 10.7 43.8 2.8 5.5 10.2 6.6 14.5 2.2l232.8-239.7c3.6-3.8 3.2-10.1-1-13.3zM142.4 347.1l360.9 270.3a9 9 0 0 0 10.8 0L875 347.1c5.2-3.9 4.7-11.9-1-15.1L513 129.4c-2.7-1.5-6.1-1.5-8.8 0L143.3 332c-5.6 3.2-6.1 11.2-0.9 15.1z m449.5 282.3c-3.1-3.2-8-3.7-11.6-1.2L513.7 674c-3.1 2.1-7.1 2.1-10.2 0l-66.6-45.8c-3.6-2.5-8.5-2-11.6 1.2L190.6 874.1c-4.6 4.8-2.6 12.9 3.9 14.8 8.5 2.6 17.5 4 26.9 4H796c9.4 0 18.4-1.4 26.9-4 6.4-1.9 8.5-10 3.9-14.8L591.9 629.4z m285.4-220.8L634.9 590.2c-4.3 3.3-4.8 9.6-1.1 13.5l232.7 239.5c4.3 4.4 11.6 3.3 14.5-2.2 6.8-13.1 10.7-28 10.7-43.8V415.8c0-7.4-8.5-11.6-14.4-7.2z" p-id="12319" fill="#ffffff"></path></svg>